<?xml version="1.0" encoding="utf-8"?>
<!-- Generator: Adobe Illustrator 12.0.0, SVG Export Plug-In . SVG Version: 6.00 Build 51448)  -->
<!DOCTYPE svg PUBLIC "-//W3C//DTD SVG 1.1//EN" "http://www.w3.org/Graphics/SVG/1.1/DTD/svg11.dtd" [
	<!ENTITY ns_svg "http://www.w3.org/2000/svg">
	<!ENTITY ns_xlink "http://www.w3.org/1999/xlink">
]>
<svg  version="1.1" id="Layer_1" xmlns="&ns_svg;" xmlns:xlink="&ns_xlink;" width="193.193" height="193.193"
	 viewBox="0 0 193.193 193.193" overflow="visible" enable-background="new 0 0 193.193 193.193" xml:space="preserve">
<g>
	<circle cx="96.597" cy="96.596" r="96.597"/>
	<circle fill="#FFFFFF" cx="95.558" cy="96.809" r="81.374"/>
	<g>
		<g>
			<path d="M95.758,94.208c13.041,0,23.614-12.375,23.614-27.638c0-21.168-10.572-27.639-23.614-27.639
				c-13.042,0-23.614,6.471-23.614,27.639C72.144,81.833,82.717,94.208,95.758,94.208z"/>
			<path d="M147.903,134.888l-11.915-26.836c-0.545-1.229-1.501-2.247-2.692-2.868l-18.49-9.624c-0.407-0.213-0.9-0.171-1.267,0.105
				c-5.229,3.956-11.379,6.046-17.781,6.046c-6.403,0-12.551-2.091-17.781-6.046c-0.368-0.276-0.861-0.318-1.269-0.105
				l-18.487,9.624c-1.192,0.621-2.148,1.639-2.694,2.868l-11.913,26.836c-0.822,1.851-0.653,3.968,0.45,5.665
				c1.104,1.696,2.97,2.709,4.994,2.709h93.4c2.023,0,3.892-1.013,4.993-2.71C148.554,138.856,148.723,136.738,147.903,134.888z"/>
		</g>
	</g>
</g>
</svg>
