<?xml version="1.0" encoding="utf-8"?>
<!-- Generator: Adobe Illustrator 12.0.0, SVG Export Plug-In . SVG Version: 6.00 Build 51448)  -->
<!DOCTYPE svg PUBLIC "-//W3C//DTD SVG 1.1//EN" "http://www.w3.org/Graphics/SVG/1.1/DTD/svg11.dtd" [
	<!ENTITY ns_svg "http://www.w3.org/2000/svg">
	<!ENTITY ns_xlink "http://www.w3.org/1999/xlink">
]>
<svg  version="1.1" id="Layer_1" xmlns="&ns_svg;" xmlns:xlink="&ns_xlink;" width="193.193" height="193.193"
	 viewBox="0 0 193.193 193.193" overflow="visible" enable-background="new 0 0 193.193 193.193" xml:space="preserve">
<g>
	<circle fill="#000207" cx="96.597" cy="96.596" r="96.597"/>
	<circle fill="#FFFFFF" cx="95.558" cy="96.809" r="81.374"/>
	<g>
		<path d="M122.055,39.732H73.137c-4.077,0-7.413,3.333-7.413,7.412v94.901c0,4.078,3.335,7.415,7.413,7.415h48.918
			c4.075,0,7.412-3.331,7.412-7.413V47.144C129.468,43.065,126.131,39.732,122.055,39.732z M89.771,45.074h15.651
			c0.496,0,0.897,0.401,0.897,0.9c0,0.495-0.401,0.896-0.897,0.896H89.771c-0.494,0-0.897-0.401-0.897-0.896
			C88.874,45.476,89.277,45.074,89.771,45.074z M97.596,145.756c-2.047,0-3.706-1.659-3.706-3.71c0-2.052,1.659-3.705,3.706-3.705
			c2.045,0,3.704,1.653,3.704,3.705C101.301,144.096,99.641,145.756,97.596,145.756z M124.311,135.745H70.882V51.486h53.429V135.745
			z"/>
	</g>
</g>
</svg>
