<?xml version="1.0" encoding="utf-8"?>
<!-- Generator: Adobe Illustrator 12.0.0, SVG Export Plug-In . SVG Version: 6.00 Build 51448)  -->
<!DOCTYPE svg PUBLIC "-//W3C//DTD SVG 1.1//EN" "http://www.w3.org/Graphics/SVG/1.1/DTD/svg11.dtd" [
	<!ENTITY ns_svg "http://www.w3.org/2000/svg">
	<!ENTITY ns_xlink "http://www.w3.org/1999/xlink">
]>
<svg  version="1.1" id="Layer_1" xmlns="&ns_svg;" xmlns:xlink="&ns_xlink;" width="193.193" height="193.193"
	 viewBox="0 0 193.193 193.193" overflow="visible" enable-background="new 0 0 193.193 193.193" xml:space="preserve">
<g>
	<circle fill="#050404" cx="96.597" cy="96.596" r="96.597"/>
	<circle fill="#FFFFFF" cx="95.558" cy="96.809" r="81.374"/>
	<g>
		<g>
			<path d="M122.902,78.075h-4.217c-1.093,0-1.978,0.885-1.978,1.978c0,1.091,0.885,1.977,1.978,1.977h4.217
				c1.091,0,1.977-0.885,1.977-1.977C124.879,78.961,123.993,78.075,122.902,78.075z"/>
		</g>
	</g>
	<g>
		<g>
			<path d="M123.423,94.408c-0.78-0.999-1.954-1.572-3.223-1.572H74.991c-1.267,0-2.44,0.573-3.22,1.572
				c-0.779,0.999-1.051,2.276-0.743,3.505l1.055,4.218c0.456,1.822,2.085,3.095,3.963,3.095h43.1c1.878,0,3.509-1.272,3.964-3.096
				l1.056-4.217C124.471,96.685,124.201,95.407,123.423,94.408z M120.329,96.955l-1.054,4.218c-0.017,0.059-0.068,0.1-0.129,0.1
				h-43.1c-0.061,0-0.113-0.041-0.128-0.099l-1.055-4.219c-0.004-0.018-0.015-0.062,0.024-0.112
				c0.039-0.051,0.084-0.051,0.104-0.051H120.2c0.021,0,0.064,0,0.105,0.051C120.344,96.893,120.334,96.936,120.329,96.955z"/>
		</g>
	</g>
	<g>
		<g>
			<path d="M150.316,82.03c3.416,0,6.194-2.779,6.194-6.194c0-3.416-2.778-6.195-6.194-6.195h-2.108
				c-3.079,0-5.641,2.26-6.115,5.208l-5.274-14.504c-1.188-3.27-4.324-5.465-7.804-5.465h-15.036l-1.112-5.564
				c-0.578-2.886-3.132-4.98-6.074-4.98H88.401c-2.942,0-5.497,2.094-6.074,4.98l-1.113,5.564H66.178
				c-3.479,0-6.615,2.196-7.803,5.465L53.1,74.848c-0.474-2.948-3.035-5.208-6.115-5.208h-2.108c-3.416,0-6.195,2.779-6.195,6.195
				c0,3.416,2.779,6.194,6.195,6.194h2.108c0.974,0,1.895-0.227,2.716-0.629l-4.52,5.65c-1.471,1.839-2.282,4.149-2.282,6.504
				v39.217c0,2.253,1.833,4.086,4.086,4.086h6.327c2.253,0,4.086-1.833,4.086-4.086v-8.566h80.398v8.566
				c0,2.253,1.833,4.086,4.086,4.086h6.326c2.253,0,4.085-1.833,4.085-4.086V93.555c0-2.355-0.811-4.666-2.28-6.504l-4.521-5.65
				c0.82,0.402,1.742,0.629,2.716,0.629H150.316z M46.985,78.075h-2.108c-1.235,0-2.241-1.005-2.241-2.24
				c0-1.236,1.005-2.241,2.241-2.241h2.108c1.236,0,2.241,1.005,2.241,2.241C49.226,77.07,48.221,78.075,46.985,78.075z
				 M86.204,50.09c0.208-1.043,1.133-1.801,2.196-1.801h18.391c1.064,0,1.988,0.758,2.196,1.801l0.957,4.79H85.246L86.204,50.09z
				 M53.443,132.772c0,0.072-0.059,0.132-0.131,0.132h-6.327c-0.072,0-0.132-0.06-0.132-0.132v-9.801
				c1.266,0.781,2.755,1.234,4.349,1.234h2.241V132.772L53.443,132.772z M120.926,120.252H74.268v-4.35
				c0-0.072,0.059-0.131,0.132-0.131h46.394c0.071,0,0.132,0.059,0.132,0.131V120.252L120.926,120.252z M148.339,132.772
				c0,0.072-0.059,0.132-0.131,0.132h-6.326c-0.074,0-0.133-0.06-0.133-0.132v-8.566h2.24c1.595,0,3.084-0.453,4.35-1.234V132.772
				L148.339,132.772z M146.925,89.521c0.913,1.141,1.414,2.573,1.414,4.034v22.347c0,2.398-1.95,4.35-4.348,4.35h-19.112v-4.35
				c0-2.253-1.833-4.086-4.086-4.086H74.4c-2.253,0-4.086,1.833-4.086,4.086v4.35H51.203c-2.398,0-4.35-1.951-4.35-4.35V93.555
				c0-1.461,0.503-2.894,1.416-4.034l5.993-7.492h55.987c1.093,0,1.978-0.885,1.978-1.977s-0.885-1.977-1.978-1.977H56.134
				l5.957-16.38c0.623-1.713,2.265-2.863,4.088-2.863h62.836c1.822,0,3.466,1.15,4.088,2.863l5.956,16.38h-7.721
				c-1.092,0-1.977,0.885-1.977,1.977c0,1.092,0.885,1.977,1.977,1.977h9.593L146.925,89.521z M145.967,75.835
				c0-1.236,1.005-2.241,2.241-2.241h2.108c1.235,0,2.241,1.005,2.241,2.241c0,1.235-1.006,2.24-2.241,2.24h-2.108
				C146.971,78.075,145.967,77.07,145.967,75.835z"/>
		</g>
	</g>
	<g>
		<g>
			<path d="M59.638,107.598c-2.253,0-4.086,1.832-4.086,4.085s1.833,4.088,4.086,4.088s4.086-1.835,4.086-4.088
				S61.891,107.598,59.638,107.598z"/>
		</g>
	</g>
	<g>
		<g>
			<path d="M135.554,107.598c-2.253,0-4.086,1.832-4.086,4.085s1.833,4.088,4.086,4.088c2.254,0,4.087-1.835,4.087-4.088
				S137.808,107.598,135.554,107.598z"/>
		</g>
	</g>
	<g>
		<g>
			<path d="M58.584,90.728c-3.997,0-7.249,3.252-7.249,7.249s3.252,7.249,7.249,7.249s7.249-3.252,7.249-7.249
				S62.581,90.728,58.584,90.728z M58.584,101.272c-1.817,0-3.295-1.478-3.295-3.295s1.478-3.295,3.295-3.295
				s3.295,1.478,3.295,3.295S60.401,101.272,58.584,101.272z"/>
		</g>
	</g>
	<g>
		<g>
			<path d="M136.609,90.728c-3.998,0-7.249,3.252-7.249,7.249s3.251,7.249,7.249,7.249c3.997,0,7.249-3.252,7.249-7.249
				S140.606,90.728,136.609,90.728z M136.609,101.272c-1.817,0-3.296-1.478-3.296-3.295s1.479-3.295,3.296-3.295
				c1.816,0,3.295,1.478,3.295,3.295S138.427,101.272,136.609,101.272z"/>
		</g>
	</g>
</g>
</svg>
